<svg height="418pt" viewBox="-7 0 418 418.416" width="418pt" xmlns="http://www.w3.org/2000/svg"><path d="m42.003906 6.96875h222.933594c15.390625 0 27.863281 12.476562 27.863281 27.863281v348.335938c0 15.390625-12.476562 27.867187-27.863281 27.867187h-222.933594c-15.390625 0-27.867187-12.476562-27.867187-27.867187v-348.335938c0-15.390625 12.476562-27.863281 27.867187-27.863281zm0 0" fill="#ff5e5b"/><g fill="#9e0c09"><path d="m174.371094 34.832031c0 3.847657-3.121094 6.96875-6.96875 6.96875s-6.964844-3.121093-6.964844-6.96875c0-3.847656 3.117188-6.964843 6.964844-6.964843s6.96875 3.117187 6.96875 6.964843zm0 0"/><path d="m146.503906 34.832031c0 3.847657-3.121094 6.96875-6.96875 6.96875s-6.964844-3.121093-6.964844-6.96875c0-3.847656 3.117188-6.964843 6.964844-6.964843s6.96875 3.117187 6.96875 6.964843zm0 0"/><path d="m181.335938 390.132812h-55.734376c-3.847656 0-6.964843-3.117187-6.964843-6.964843 0-3.847657 3.117187-6.96875 6.964843-6.96875h55.734376c3.847656 0 6.96875 3.121093 6.96875 6.96875-.003907 3.847656-3.121094 6.964843-6.96875 6.964843zm0 0"/></g><path d="m181.335938 376.199219h-55.734376c-2.445312.03125-4.691406 1.355469-5.898437 3.484375 1.207031 2.128906 3.453125 3.453125 5.898437 3.484375h55.734376c2.445312-.03125 4.695312-1.355469 5.902343-3.484375-1.207031-2.128906-3.457031-3.453125-5.902343-3.484375zm0 0" fill="#eb120d"/><path d="m14.136719 60.957031h278.667969v294.34375h-278.667969zm0 0" fill="#9cb16a"/><path d="m14.136719 60.957031v210.296875l190.078125-210.296875zm0 0" fill="#c2d197"/><path d="m104.703125 271.699219h-34.835937v27.867187c0 15.390625 12.476562 27.867188 27.867187 27.867188h139.335937v-55.734375zm0 0" fill="#075057"/><path d="m364.484375 372.128906 26.160156-4.609375 4.953125 28.085938c1.273438 7.222656-3.546875 14.109375-10.769531 15.382812-7.222656 1.273438-14.109375-3.546875-15.382813-10.769531l-4.953124-28.089844zm0 0" fill="#ff5e5b"/><path d="m369.4375 400.214844c.925781 5.304687 4.976562 9.519531 10.238281 10.660156l-7.082031-40.171875-8.109375 1.394531zm0 0" fill="#eb120d"/><path d="m390.640625 367.519531-26.160156 4.613281 1.8125 10.253907c2.890625 1.035156 5.933593 1.566406 9 1.574219 1.574219-.003907 3.140625-.140626 4.691406-.410157 4.59375-.835937 8.882813-2.875 12.433594-5.90625zm0 0" fill="#9e0c09"/><path d="m312.390625 34.679688 11.792969-2.078126c7.578125-1.335937 14.804687 3.722657 16.140625 11.300782l45.972656 260.710937-39.238281 6.917969-45.972656-260.710938c-1.335938-7.578124 3.726562-14.804687 11.304687-16.140624zm0 0" fill="#ff5e5b"/><path d="m361.710938 308.953125-48.390626-274.433594-.933593.167969c-7.578125 1.332031-12.640625 8.558594-11.304688 16.136719 0 .011719.003907.023437.003907.03125l45.980468 260.714843zm0 0" fill="#eb120d"/><path d="m347.058594 311.539062 39.238281-6.917968 8.636719 48.984375c1.910156 10.839843-5.324219 21.171875-16.160156 23.082031-10.839844 1.914062-21.171876-5.324219-23.082032-16.160156l-8.640625-48.988282zm0 0" fill="#9cb16a"/><path d="m361.710938 308.953125-14.632813 2.582031 8.640625 48.988282c1.582031 8.898437 8.972656 15.609374 17.980469 16.324218zm0 0" fill="#649454"/><path d="m324.851562 32.492188-13.105468 2.339843c-7.367188 1.484375-12.136719 8.65625-10.660156 16.023438l7.257812 41.105469 39.238281-6.917969-7.257812-41.152344c-1.136719-7.414063-8.058594-12.515625-15.472657-11.398437zm0 0" fill="#9cb16a"/><path d="m313.320312 34.519531-1.574218.3125c-7.367188 1.484375-12.136719 8.65625-10.660156 16.023438l7.257812 41.105469 14.632812-2.585938zm0 0" fill="#649454"/><path d="m90.769531 111.464844h146.300781v209.003906h-139.335937c-15.390625 0-27.863281-12.480469-27.863281-27.867188v-160.234374c-.003906-11.542969 9.355468-20.902344 20.898437-20.902344zm0 0" fill="#649454"/><path d="m158.5625 111.464844h-67.792969c-11.542969 0-20.902343 9.359375-20.902343 20.902344v77.226562zm0 0" fill="#9cb16a"/><path d="m167.402344 111.464844v38.320312c.007812 1.921875 1.574218 3.476563 3.496094 3.46875.679687-.003906 1.34375-.203125 1.910156-.578125l13.566406-9.058593c1.167969-.777344 2.6875-.777344 3.855469 0l13.566406 9.058593c1.605469 1.0625 3.765625.621094 4.828125-.984375.375-.566406.574219-1.230468.578125-1.90625v-38.320312zm0 0" fill="#075057"/><path d="m203.796875 149.660156-13.566406-9.058594c-1.167969-.777343-2.6875-.777343-3.855469 0l-13.566406 9.058594c-1.605469 1.058594-3.765625.621094-4.828125-.984375-.375-.566406-.574219-1.230469-.578125-1.910156v-49.199219c0-3.84375 3.121094-6.964844 6.96875-6.964844h27.867187c3.84375 0 6.964844 3.117188 6.964844 6.964844v49.199219c-.007813 1.925781-1.570313 3.476563-3.496094 3.46875-.679687 0-1.34375-.203125-1.910156-.574219zm0 0" fill="#eb120d"/><path d="m97.734375 264.734375h139.335937v55.734375h-139.335937c-15.390625 0-27.863281-12.480469-27.863281-27.867188-.003906-15.390624 12.472656-27.867187 27.863281-27.867187zm0 0" fill="#c2d197"/><path d="m149.988281 222.933594h-34.835937v-13.933594h28.863281c3.847656 0 6.96875-3.117188 6.96875-6.964844s-3.121094-6.96875-6.96875-6.96875h-28.863281v-13.933594h34.835937c3.84375 0 6.964844-3.117187 6.964844-6.964843 0-3.847657-3.117187-6.96875-6.964844-6.96875h-41.800781c-3.847656 0-6.96875 3.117187-6.96875 6.96875v55.730469c0 3.847656 3.117188 6.96875 6.96875 6.96875h41.800781c3.84375 0 6.964844-3.121094 6.964844-6.96875 0-3.847657-3.121094-6.964844-6.964844-6.964844zm0 0" fill="#eb120d"/><path d="m129.085938 289.117188c-1.925782 0-3.484376 1.558593-3.484376 3.484374 0 1.921876 1.558594 3.484376 3.484376 3.484376h107.984374v-6.96875zm0 0" fill="#9cb16a"/><path d="m403.949219 393.46875-4.089844-23.191406c3.535156-5.71875 4.855469-12.53125 3.714844-19.15625l-8.496094-48.070313-45.964844-260.695312c-2-11.367188-12.839843-18.957031-24.207031-16.957031l-13.726562 2.425781c-4.40625.789062-8.4375 2.988281-11.484376 6.269531-.402343-18.917969-15.835937-34.0585938-34.757812-34.09375h-229.902344c-19.226562.0234375-34.808594 15.605469-34.832031 34.832031v181.132813c0 3.847656 3.117187 6.96875 6.964844 6.96875 3.847656 0 6.96875-3.117188 6.96875-6.96875v-181.132813c0-11.542969 9.355469-20.898437 20.898437-20.898437h229.902344c11.542969 0 20.898438 9.355468 20.898438 20.898437v20.902344h-243.832032c-3.847656 0-6.96875 3.117187-6.96875 6.964844 0 3.847656 3.121094 6.96875 6.96875 6.96875h243.832032v278.667969h-243.832032c-3.847656 0-6.96875 3.117187-6.96875 6.964843 0 3.847657 3.121094 6.96875 6.96875 6.96875h243.832032v20.898438c0 11.542969-9.355469 20.902343-20.898438 20.902343h-229.902344c-11.542968 0-20.898437-9.359374-20.898437-20.902343v-118.433594c0-3.847656-3.121094-6.96875-6.96875-6.96875-3.847657 0-6.96875 3.121094-6.96875 6.96875v118.433594c.023437 19.226562 15.605469 34.808593 34.835937 34.832031h229.902344c19.226562-.023438 34.808594-15.605469 34.832031-34.832031v-299.726563l40.40625 229.308594 8.464844 48.019531c1.179687 6.660157 4.753906 12.65625 10.046875 16.867188l4.070312 23.082031c1.753907 9.988281 10.421876 17.273438 20.5625 17.28125 1.234376 0 2.464844-.105469 3.679688-.320312 11.363281-2.003907 18.953125-12.84375 16.949219-24.210938zm-41.570313-35.117188-7.25-41.160156 27.449219-4.875 7.257813 41.164063c1.335937 7.582031-3.730469 14.8125-11.3125 16.148437-7.582032 1.332032-14.808594-3.730468-16.144532-11.3125zm-53.273437-313.9375c1.054687-1.519531 2.675781-2.554687 4.5-2.871093l13.71875-2.417969c.402343-.070312.8125-.105469 1.226562-.105469 3.371094.007813 6.253907 2.433594 6.839844 5.753907l6.054687 34.304687-27.449218 4.84375-6.046875-34.3125c-.324219-1.816406.09375-3.6875 1.15625-5.195313zm7.316406 53.222657 27.441406-4.832031 36.289063 205.820312-27.4375 4.878906zm68.152344 306.320312c-3.785157.664063-7.398438-1.863281-8.066407-5.652343l-2.589843-14.699219c.695312.0625 1.441406.195312 2.179687.195312 3.996094.023438 7.941406-.867187 11.542969-2.605469l2.589844 14.691407c.667969 3.789062-1.863281 7.402343-5.652344 8.066406-.003906.003906-.003906.003906-.003906.003906zm0 0"/><path d="m209.203125 83.601562h-41.800781c-3.847656 0-6.964844 3.117188-6.964844 6.964844v13.933594h-69.667969c-15.390625 0-27.867187 12.476562-27.867187 27.867188v160.234374c.023437 19.226563 15.605468 34.808594 34.832031 34.832032h139.335937c3.847657 0 6.964844-3.117188 6.964844-6.964844 0-3.851562-3.117187-6.96875-6.964844-6.96875h-139.335937c-11.539063 0-20.898437-9.359375-20.898437-20.902344 0-11.539062 9.359374-20.898437 20.898437-20.898437h139.335937c3.847657 0 6.964844-3.117188 6.964844-6.96875v-153.265625c0-3.84375-3.117187-6.964844-6.964844-6.964844h-20.902343v-13.933594c0-3.847656-3.117188-6.964844-6.964844-6.964844zm-34.832031 13.929688h27.863281v42.714844l-10.066406-6.710938c-2.339844-1.558594-5.390625-1.558594-7.734375 0l-10.066406 6.710938v-42.714844zm55.730468 20.902344v139.332031h-132.367187c-7.5625.027344-14.90625 2.539063-20.898437 7.148437v-132.546874c0-7.695313 6.238281-13.933594 13.933593-13.933594h69.667969v34.832031c-.003906 3.847656 3.117188 6.96875 6.964844 6.96875 1.375 0 2.722656-.40625 3.867187-1.171875l17.03125-11.367188 17.035157 11.355469c3.199218 2.132813 7.527343 1.269531 9.660156-1.929687.761718-1.140625 1.167968-2.484375 1.171875-3.855469v-34.832031zm0 0"/><path d="m237.070312 285.632812h-125.402343c-3.847657 0-6.964844 3.121094-6.964844 6.96875 0 3.847657 3.117187 6.964844 6.964844 6.964844h125.402343c3.847657 0 6.964844-3.117187 6.964844-6.964844 0-3.847656-3.117187-6.96875-6.964844-6.96875zm0 0"/><path d="m149.988281 181.132812c3.84375 0 6.964844-3.117187 6.964844-6.964843 0-3.847657-3.117187-6.96875-6.964844-6.96875h-41.800781c-3.847656 0-6.96875 3.117187-6.96875 6.96875v55.730469c0 3.847656 3.117188 6.96875 6.96875 6.96875h41.800781c3.84375 0 6.964844-3.121094 6.964844-6.96875 0-3.847657-3.117187-6.964844-6.964844-6.964844h-34.835937v-13.933594h28.863281c3.847656 0 6.96875-3.121094 6.96875-6.96875s-3.121094-6.964844-6.96875-6.964844h-28.863281v-13.933594zm0 0"/><path d="m174.371094 34.832031c0 3.847657-3.121094 6.96875-6.96875 6.96875s-6.964844-3.121093-6.964844-6.96875c0-3.847656 3.117188-6.964843 6.964844-6.964843s6.96875 3.117187 6.96875 6.964843zm0 0"/><path d="m146.503906 34.832031c0 3.847657-3.121094 6.96875-6.96875 6.96875s-6.964844-3.121093-6.964844-6.96875c0-3.847656 3.117188-6.964843 6.964844-6.964843s6.96875 3.117187 6.96875 6.964843zm0 0"/><path d="m181.335938 390.132812c3.847656 0 6.96875-3.117187 6.96875-6.964843 0-3.847657-3.121094-6.96875-6.96875-6.96875h-55.734376c-3.847656 0-6.964843 3.121093-6.964843 6.96875 0 3.847656 3.117187 6.964843 6.964843 6.964843zm0 0"/></svg>